name GIL01_slow3.mot
datacolumns 153
datarows 4
range 0.97500002 1.00000000
endheader

                time	           pelvis_tx	           pelvis_ty	           pelvis_tz	         pelvis_tilt	         pelvis_list	     pelvis_rotation	       hip_flexion_r	     hip_adduction_r	      hip_rotation_r	        knee_angle_r	       ankle_angle_r	    subtalar_angle_r	         mtp_angle_r	       hip_flexion_l	     hip_adduction_l	      hip_rotation_l	        knee_angle_l	       ankle_angle_l	    subtalar_angle_l	         mtp_angle_l	    lumbar_extension	      lumbar_bending	     lumbar_rotation	     ground_force_vx	     ground_force_vy	     ground_force_vz	     ground_force_px	     ground_force_py	     ground_force_pz	     ground_force_vx	     ground_force_vy	     ground_force_vz	     ground_force_px	     ground_force_py	     ground_force_pz	     ground_torque_x	     ground_torque_y	     ground_torque_z	     ground_torque_x	     ground_torque_y	     ground_torque_z	    ground_marker_px	    ground_marker_py	    ground_marker_pz	    ground_marker_px	    ground_marker_py	    ground_marker_pz	    ground_marker_px	    ground_marker_py	    ground_marker_pz	    ground_marker_px	    ground_marker_py	    ground_marker_pz	    ground_marker_px	    ground_marker_py	    ground_marker_pz	    ground_marker_px	    ground_marker_py	    ground_marker_pz	    ground_marker_px	    ground_marker_py	    ground_marker_pz	    ground_marker_px	    ground_marker_py	    ground_marker_pz	    ground_marker_px	    ground_marker_py	    ground_marker_pz	    ground_marker_px	    ground_marker_py	    ground_marker_pz	    ground_marker_px	    ground_marker_py	    ground_marker_pz	    ground_marker_px	    ground_marker_py	    ground_marker_pz	    ground_marker_px	    ground_marker_py	    ground_marker_pz	    ground_marker_px	    ground_marker_py	    ground_marker_pz	    ground_marker_px	    ground_marker_py	    ground_marker_pz	    ground_marker_px	    ground_marker_py	    ground_marker_pz	    ground_marker_px	    ground_marker_py	    ground_marker_pz	    ground_marker_px	    ground_marker_py	    ground_marker_pz	    ground_marker_px	    ground_marker_py	    ground_marker_pz	    ground_marker_px	    ground_marker_py	    ground_marker_pz	    ground_marker_px	    ground_marker_py	    ground_marker_pz	    ground_marker_px	    ground_marker_py	    ground_marker_pz	    ground_marker_px	    ground_marker_py	    ground_marker_pz	    ground_marker_px	    ground_marker_py	    ground_marker_pz	    ground_marker_px	    ground_marker_py	    ground_marker_pz	    ground_marker_px	    ground_marker_py	    ground_marker_pz	    ground_marker_px	    ground_marker_py	    ground_marker_pz	    ground_marker_px	    ground_marker_py	    ground_marker_pz	    ground_marker_px	    ground_marker_py	    ground_marker_pz	    ground_marker_px	    ground_marker_py	    ground_marker_pz	    ground_marker_px	    ground_marker_py	    ground_marker_pz	    ground_marker_px	    ground_marker_py	    ground_marker_pz	    ground_marker_px	    ground_marker_py	    ground_marker_pz	    ground_marker_px	    ground_marker_py	    ground_marker_pz	    ground_marker_px	    ground_marker_py	    ground_marker_pz	    ground_marker_px	    ground_marker_py	    ground_marker_pz	    ground_marker_px	    ground_marker_py	    ground_marker_pz	
          0.97500002	         -0.48034927	          0.79411745	          0.24025160	         -3.52507210	         -4.86139774	          1.12841523	         21.06378555	          8.21775913	         -2.99820733	         -4.80727339	        -11.25821114	          0.00000000	          0.00000000	        -15.64677429	         -1.51925933	        -12.08749008	         -9.33214378	          6.66465616	          0.00000000	          0.00000000	         -2.67381454	          9.30838585	        -10.79779148	        -47.32227320	        273.04823464	        -12.83665752	         -0.37314362	          0.00000000	          0.27230054	         36.24222427	        164.62807398	         -1.54683685	         -0.74460461	          0.00000000	          0.20786453	          0.00000000	          0.25933752	          0.00000000	          0.00000000	         -0.53741479	          0.00000000	         -0.53805482	          0.72962922	          0.25052693	         -0.54970843	          0.73251820	          0.31327933	         -0.55513650	          0.72256643	          0.18345779	         -0.44877911	          0.40410566	          0.28476951	         -0.66028935	          0.42071608	          0.20247149	         -0.37580273	          0.06879006	          0.26277274	         -0.83702022	          0.10234545	          0.21665885	         -0.48034927	          0.79411745	          0.24025160	         -0.47612539	          0.80186141	          0.34127262	         -0.48457316	          0.78637344	          0.13923056	         -0.63557220	          0.84078282	          0.27628982	         -0.63783711	          0.83579469	          0.22089994	         -0.44688538	          0.39992964	          0.33957803	         -0.67281884	          0.42174044	          0.14944121	         -0.45151696	          0.40849659	          0.24546644	         -0.65402079	          0.40020362	          0.25091049	         -0.38560519	          0.06430057	          0.29868940	         -0.84938425	          0.10767310	          0.18219516	         -0.37055051	          0.07435447	          0.23953274	         -0.83256298	          0.10505639	          0.24671215	         -0.63628215	          1.19985652	          0.21991882	         -0.53331435	          1.14586031	          0.28074959	         -0.52104366	          1.15073514	          0.20604609	         -0.54135466	          1.14630711	          0.23952284	         -0.50845641	          1.06587064	          0.24212009	         -0.38005167	          0.54404867	          0.40340701	         -0.48120025	          0.49432096	          0.15448187	         -0.46805233	          0.57623661	          0.37863597	         -0.53673750	          0.57225996	          0.13414977	         -0.44609863	          0.49591643	          0.35791773	         -0.57327712	          0.49304625	          0.14493449	         -0.42686766	          0.16367000	          0.38061270	         -0.78658968	          0.21525751	          0.10070800	         -0.40928504	          0.13847636	          0.30422971	         -0.80839390	          0.18455566	          0.17577806	         -0.27854976	          0.03998384	          0.28932044	         -0.76072919	          0.03882607	          0.19744979	
          0.98333341	         -0.47380567	          0.79549420	          0.24125962	         -3.48771381	         -4.83813810	          0.92765945	         20.73399353	          8.31394768	         -3.30206704	         -5.29188824	        -10.64508438	          0.00000000	          0.00000000	        -15.27049923	         -1.69462717	        -12.05895519	        -10.76910591	          5.43988609	          0.00000000	          0.00000000	         -2.67021132	          9.47944832	        -10.81575108	        -47.40457494	        277.36230373	        -12.85440650	         -0.37111130	          0.00000000	          0.27345758	         33.18190344	        142.56249847	         -1.80703238	         -0.74336993	          0.00000000	          0.20884285	          0.00000000	          0.22330359	          0.00000000	          0.00000000	         -0.44998907	          0.00000000	         -0.53132904	          0.73113418	          0.25179368	         -0.54335970	          0.73386866	          0.31407955	         -0.54832739	          0.72384161	          0.18424539	         -0.44395116	          0.40502822	          0.28564307	         -0.65135330	          0.42101365	          0.20206551	         -0.37541762	          0.06875914	          0.26327243	         -0.83358711	          0.10578448	          0.21611060	         -0.47380567	          0.79549420	          0.24125962	         -0.46994039	          0.80329603	          0.34228036	         -0.47767097	          0.78769237	          0.14023888	         -0.62934619	          0.84206802	          0.27661988	         -0.63117170	          0.83696657	          0.22117551	         -0.44254443	          0.40071356	          0.34045550	         -0.66365510	          0.42207518	          0.14898266	         -0.44608930	          0.40987650	          0.24597552	         -0.64506680	          0.40042773	          0.25111732	         -0.38561732	          0.06429812	          0.29908189	         -0.84586871	          0.11134928	          0.18165489	         -0.37045711	          0.07450382	          0.23998086	         -0.82871532	          0.10848457	          0.24607076	         -0.62987387	          1.20126605	          0.22092676	         -0.52713680	          1.14722872	          0.28206342	         -0.51456887	          1.15229213	          0.20744239	         -0.53501076	          1.14776635	          0.24081525	         -0.50204992	          1.06735349	          0.24335462	         -0.37542099	          0.54434294	          0.40526617	         -0.47264844	          0.49564132	          0.15504749	         -0.46288216	          0.57716608	          0.37977678	         -0.52867126	          0.57331759	          0.13458012	         -0.44121259	          0.49667263	          0.35886881	         -0.56475639	          0.49374667	          0.14530919	         -0.42629653	          0.16411310	          0.38095835	         -0.78133124	          0.21775961	          0.09998772	         -0.40857935	          0.13886726	          0.30475366	         -0.80352950	          0.18754360	          0.17517866	         -0.27848521	          0.03982604	          0.28949410	         -0.75963736	          0.03923866	          0.19748126	
          0.99166673	         -0.46732229	          0.79691100	          0.24227870	         -3.45459843	         -4.77786016	          0.74776161	         20.33408356	          8.38521004	         -3.54199052	         -5.62079287	        -10.07403278	          0.00000000	          0.00000000	        -14.79430199	         -1.85911131	        -12.03840542	        -12.32298183	          4.05285263	          0.00000000	          0.00000000	         -2.67552376	          9.48089314	        -10.76435947	        -47.34987388	        281.81975971	        -12.09797513	         -0.36947836	          0.00000000	          0.27441861	         29.89419556	        120.56900075	         -2.02275284	         -0.74215668	          0.00000000	          0.20973622	          0.00000000	          0.20662402	          0.00000000	          0.00000000	         -0.37029077	          0.00000000	         -0.52481145	          0.73245096	          0.25269148	         -0.53706402	          0.73521388	          0.31485799	         -0.54159540	          0.72520608	          0.18500639	         -0.43960568	          0.40584126	          0.28640079	         -0.64197719	          0.42123863	          0.20150039	         -0.37502560	          0.06873728	          0.26375842	         -0.82969177	          0.10936661	          0.21555947	         -0.46732229	          0.79691100	          0.24227870	         -0.46379682	          0.80469728	          0.34330580	         -0.47084779	          0.78912473	          0.14125158	         -0.62298423	          0.84335607	          0.27707094	         -0.62458861	          0.83820164	          0.22155492	         -0.43863696	          0.40139231	          0.34121200	         -0.65408123	          0.42235306	          0.14837319	         -0.44159350	          0.41093975	          0.24657106	         -0.63560545	          0.40034950	          0.25086755	         -0.38566306	          0.06430255	          0.29944354	         -0.84188676	          0.11515374	          0.18110964	         -0.37035516	          0.07466963	          0.24036707	         -0.82445413	          0.11200051	          0.24540789	         -0.62351030	          1.20269501	          0.22184953	         -0.52090472	          1.14871705	          0.28335962	         -0.50816774	          1.15380991	          0.20881212	         -0.52868301	          1.14925873	          0.24211341	         -0.49566174	          1.06887269	          0.24470894	         -0.37101892	          0.54445398	          0.40691060	         -0.46377441	          0.49710074	          0.15539300	         -0.45781574	          0.57800388	          0.38079947	         -0.52039146	          0.57448483	          0.13487123	         -0.43675309	          0.49726838	          0.35977408	         -0.55587208	          0.49445164	          0.14540960	         -0.42599803	          0.16452615	          0.38119841	         -0.77562082	          0.22029187	          0.09917038	         -0.40794328	          0.13926281	          0.30518958	         -0.79804474	          0.19051890	          0.17447211	         -0.27846318	          0.03977161	          0.28967899	         -0.75838351	          0.03963166	          0.19756594	
          1.00000000	         -0.46090394	          0.79832065	          0.24330446	         -3.42922020	         -4.68684673	          0.58654487	         19.87502098	          8.43482685	         -3.71482182	         -5.81707525	         -9.52791214	          0.00000000	          0.00000000	        -14.20946598	         -2.03230190	        -12.00763130	        -14.00474834	          2.50139403	          0.00000000	          0.00000000	         -2.70731783	          9.42608738	        -10.73078632	        -46.76478834	        287.18641206	        -10.57401319	         -0.36824304	          0.00000000	          0.27515604	         26.21695792	         99.08855029	         -2.18948757	         -0.74092657	          0.00000000	          0.21051801	          0.00000000	          0.16879333	          0.00000000	          0.00000000	         -0.29943457	          0.00000000	         -0.51837826	          0.73367554	          0.25332606	         -0.53083044	          0.73651952	          0.31561705	         -0.53494912	          0.72661072	          0.18574411	         -0.43571815	          0.40654776	          0.28705797	         -0.63214689	          0.42132193	          0.20070595	         -0.37469888	          0.06869597	          0.26421332	         -0.82529342	          0.11306214	          0.21500380	         -0.46090394	          0.79832065	          0.24330446	         -0.45769995	          0.80602884	          0.34433410	         -0.46410790	          0.79061246	          0.14227484	         -0.61654484	          0.84461790	          0.27760538	         -0.61807066	          0.83946365	          0.22201885	         -0.43513331	          0.40197283	          0.34186423	         -0.64406210	          0.42250976	          0.14753765	         -0.43691921	          0.41148230	          0.24738342	         -0.62568891	          0.40003768	          0.25031066	         -0.38572890	          0.06429867	          0.29978374	         -0.83740956	          0.11905625	          0.18056154	         -0.37024954	          0.07479992	          0.24074572	         -0.81977576	          0.11551066	          0.24472329	         -0.61718082	          1.20416021	          0.22286776	         -0.51467878	          1.15019524	          0.28459996	         -0.50177276	          1.15527511	          0.21017382	         -0.52236223	          1.15072751	          0.24337947	         -0.48933366	          1.07034743	          0.24606691	         -0.36683774	          0.54441136	          0.40833673	         -0.45461652	          0.49867365	          0.15554753	         -0.45342037	          0.57860649	          0.38143840	         -0.51200718	          0.57566047	          0.13501689	         -0.43262592	          0.49784115	          0.36062795	         -0.54667962	          0.49520332	          0.14528279	         -0.42574617	          0.16491807	          0.38140142	         -0.76946074	          0.22281003	          0.09826866	         -0.40736553	          0.13964312	          0.30553526	         -0.79185438	          0.19340473	          0.17377849	         -0.27848500	          0.03977317	          0.28986666	         -0.75695986	          0.03999750	          0.19770576	
